{"title":"Knock Knock 2015 BRRip XviD MP3-RARBG","uid":12585445,"size":1324614877,"categoryP":"video","categoryS":"movies","magnet":"?xt=urn:btih:ef6047c5f6cb961b6a45932a68a4c39b0647df62&amp;dn=Knock+Knock+2015+BRRip+XviD+MP3-RARBG&amp;tr=udp%3A%2F%2Ftracker.leechers-paradise.org%3A6969&amp;tr=udp%3A%2F%2Fzer0day.ch%3A1337&amp;tr=udp%3A%2F%2Fopen.demonii.com%3A1337&amp;tr=udp%3A%2F%2Ftracker.coppersurfer.tk%3A6969&amp;tr=udp%3A%2F%2Fexodus.desync.com%3A6969","seeders":0,"leechers":1,"uploader":"TheRival","files":6,"time":1445008113,"description":"Video\r\nID : 0\r\nFormat : MPEG-4 Visual\r\nFormat profile :   \r\nFormat settings, BVOP : No\r\nFormat settings, QPel : No\r\nFormat settings, GMC : No warppoints\r\nFormat settings, Matrix : Default (H.263)\r\nCodec ID : XVID\r\nCodec ID/Hint : XviD\r\nDuration : 1h 39mn\r\nBit rate : 1 564 Kbps\r\nWidth : 720 pixels\r\nHeight : 302 pixels\r\nDisplay aspect ratio : 2.40:1\r\nOriginal display aspect ratio : 2.40:1\r\nFrame rate : 23.976 fps\r\nColor space : YUV\r\nChroma subsampling : 4:2:0\r\nBit depth : 8 bits\r\nScan type : Progressive\r\nCompression mode : Lossy\r\nBits/(Pixel*Frame) : 0.300\r\nStream size : 1.08 GiB (88%)\r\nTitle : RARBG.COM - Knock.Knock.2015.BRRip.XviD.MP3-RARBG\r\nWriting library : Lavc56.60.100\r\n\r\nAudio\r\nID : 1\r\nFormat : MPEG Audio\r\nFormat version : Version 1\r\nFormat profile : Layer 3\r\nMode : Joint stereo\r\nMode extension : MS Stereo\r\nCodec ID : 55\r\nCodec ID/Hint : MP3\r\nDuration : 1h 39mn\r\nBit rate mode : Constant\r\nBit rate : 192 Kbps\r\nChannel(s) : 2 channels\r\nSampling rate : 48.0 KHz\r\nCompression mode : Lossy\r\nStream size : 136 MiB (11%)\r\nAlignment : Aligned on interleaves\r\nInterleave, duration : 24 ms (0.58 video frame)\r\nInterleave, preload duration : 24 ms\r\nTitle : RARBG.COM - Knock.Knock.2015.BRRip.XviD.MP3-RARBG\r\nWriting library : LAME3.99.5","torrent":{"xt":"urn:btih:ef6047c5f6cb961b6a45932a68a4c39b0647df62","amp;dn":"Knock+Knock+2015+BRRip+XviD+MP3-RARBG","amp;tr":["udp%3A%2F%2Ftracker.leechers-paradise.org%3A6969","udp%3A%2F%2Fzer0day.ch%3A1337","udp%3A%2F%2Fopen.demonii.com%3A1337","udp%3A%2F%2Ftracker.coppersurfer.tk%3A6969","udp%3A%2F%2Fexodus.desync.com%3A6969"],"infoHash":"ef6047c5f6cb961b6a45932a68a4c39b0647df62","infoHashBuffer":{"type":"Buffer","data":[239,96,71,197,246,203,150,27,106,69,147,42,104,164,195,155,6,71,223,98]},"announce":[],"urlList":[]}}